<?xml version="1.0" standalone="no"?>
<!DOCTYPE svg PUBLIC "-//W3C//DTD SVG 20010904//EN"
 "http://www.w3.org/TR/2001/REC-SVG-20010904/DTD/svg10.dtd">
<svg version="1.0" xmlns="http://www.w3.org/2000/svg"
 width="16.000000pt" height="16.000000pt" viewBox="0 0 16.000000 16.000000"
 preserveAspectRatio="xMidYMid meet">
<metadata>
Created by potrace 1.11, written by Peter Selinger 2001-2013
</metadata>
<g transform="translate(0.000000,16.000000) scale(0.001385,-0.001385)"
fill="#000000" stroke="none">
<path d="M9680 11453 c-1460 -7 -3889 -26 -4200 -33 -371 -7 -376 -8 -450 -34
-41 -15 -100 -43 -130 -63 -94 -62 -951 -666 -2070 -1458 -591 -419 -1383
-979 -1760 -1244 -377 -266 -696 -493 -708 -505 -59 -53 -69 -150 -22 -216 47
-66 22 -64 775 -62 374 1 758 5 854 9 168 6 174 5 167 -13 -15 -38 -56 -232
-73 -344 -12 -84 -17 -179 -17 -350 0 -256 12 -370 64 -632 16 -81 32 -171 36
-200 8 -72 -16 -179 -59 -264 -52 -103 -67 -165 -67 -272 0 -221 99 -402 274
-504 133 -78 180 -140 210 -278 8 -41 47 -255 86 -475 104 -587 238 -1311 256
-1380 45 -178 88 -183 462 -61 141 47 326 105 410 131 171 51 233 79 275 123
37 38 44 87 22 153 -10 30 -150 333 -312 674 -542 1140 -547 1150 -546 1219 0
45 9 82 32 139 81 199 81 367 -1 537 -39 81 -165 209 -256 260 -151 85 -166
107 -206 296 -77 369 -77 725 -1 1014 33 122 70 188 121 214 39 21 52 21 1579
28 847 3 1568 9 1603 12 90 9 208 49 272 93 72 48 1108 777 2030 1429 2128
1504 2478 1752 2516 1791 79 77 66 159 -35 220 -81 49 -121 53 -454 51 -166
-2 -471 -4 -677 -5z"/>
<path d="M8730 9318 c-78 -54 -1581 -1117 -2030 -1436 -353 -252 -435 -291
-642 -311 -60 -6 -698 -12 -1512 -15 -775 -3 -1413 -9 -1417 -13 -13 -14 8
-107 112 -480 95 -344 143 -531 217 -847 65 -272 179 -424 402 -536 118 -59
301 -111 490 -139 41 -7 85 -14 97 -17 20 -4 29 8 78 107 183 364 411 677 714
979 582 581 1299 940 2115 1059 601 88 1248 19 1819 -195 65 -24 122 -44 127
-44 13 0 67 120 85 191 13 48 16 91 12 169 -4 96 -9 118 -60 262 -123 340
-510 1318 -522 1317 -5 0 -44 -23 -85 -51z"/>
<path d="M7687 7340 c-612 -55 -1150 -240 -1656 -568 -1072 -694 -1695 -1909
-1630 -3176 39 -770 304 -1468 785 -2071 112 -140 399 -428 531 -533 566 -447
1162 -696 1868 -778 171 -20 568 -23 740 -5 756 78 1426 366 1998 860 211 182
450 455 613 699 86 127 194 311 194 327 0 6 -44 30 -97 55 -173 78 -489 238
-843 426 -190 100 -352 186 -362 189 -12 5 -23 -6 -44 -42 -311 -539 -819
-898 -1438 -1014 -140 -27 -458 -37 -602 -20 -484 57 -906 261 -1250 605 -344
344 -548 768 -604 1255 -16 135 -8 434 15 561 122 682 545 1246 1160 1546 707
345 1533 262 2170 -219 164 -125 392 -376 488 -539 15 -27 30 -48 32 -48 12 0
788 389 1037 520 l287 151 -36 62 c-397 683 -1037 1233 -1770 1521 -286 113
-545 178 -878 222 -132 18 -572 26 -708 14z"/>
</g>
</svg>
