<?xml version="1.0" encoding="utf-8"?>
<!-- Generator: Adobe Illustrator 16.0.0, SVG Export Plug-In . SVG Version: 6.00 Build 0)  -->
<!DOCTYPE svg PUBLIC "-//W3C//DTD SVG 1.1//EN" "http://www.w3.org/Graphics/SVG/1.1/DTD/svg11.dtd">
<svg version="1.1" xmlns="http://www.w3.org/2000/svg" xmlns:xlink="http://www.w3.org/1999/xlink" x="0px" y="0px" width="512px"
	 height="512px" viewBox="0 0 512 512" enable-background="new 0 0 512 512" xml:space="preserve">
<g id="Layer_1">
	<circle fill="#E1483D" cx="256" cy="256" r="256"/>
</g>
<g id="Layer_2">
	<g>
		<g>
			<path fill="#4D4C4D" d="M255.997,460.161c-15.803,0-28.664-12.86-28.664-28.663c0-3.768,57.327-3.768,57.327,0
				C284.66,447.301,271.8,460.161,255.997,460.161z"/>
		</g>
		<g opacity="0.9">
			<path fill="#FFE783" d="M309.772,394.831v-46.095c0-41.347,53.77-42.793,53.77-115.213c0-59.397-48.151-107.545-107.545-107.545
				c-59.394,0-107.539,48.141-107.539,107.538c0,73.995,53.776,82.119,53.776,115.208v46.094"/>
		</g>
		<g>
			<path fill="#FFC064" d="M255.997,391.801c-3.768,0-6.817-3.049-6.817-6.816v-113.67c0-3.765,3.049-6.816,6.817-6.816
				c3.769,0,6.816,3.052,6.816,6.816v113.67C262.813,388.752,259.766,391.801,255.997,391.801z"/>
		</g>
		<g>
			<path fill="#FFAC0F" d="M255.997,283.957l-33.935-33.949c-2.663-2.663-2.663-6.979,0-9.639c2.662-2.663,6.976-2.663,9.638,0
				l24.297,24.304l24.296-24.304c2.663-2.663,6.977-2.663,9.639,0c2.663,2.66,2.663,6.976,0,9.639L255.997,283.957z"/>
		</g>
		<g>
			<path fill="#94DDFF" d="M292.395,438.314h-72.809c-11.789,0-21.381-9.586-21.381-21.368v-35.932h115.584v35.932
				C313.789,428.729,304.19,438.314,292.395,438.314z"/>
		</g>
	</g>
	<g opacity="0.5">
		<path fill="#FFE783" d="M395.257,360.408c-2.665,2.665-6.977,2.665-9.641,0.001l-30.88-30.879
			c-2.662-2.662-2.664-6.976,0.001-9.641s6.978-2.662,9.64,0l30.88,30.879C397.921,353.433,397.921,357.744,395.257,360.408z"/>
	</g>
	<g opacity="0.5">
		<path fill="#FFE783" d="M354.737,140.408c2.665,2.665,6.977,2.665,9.641,0.001l30.88-30.879c2.662-2.662,2.664-6.976-0.001-9.641
			s-6.978-2.662-9.64,0l-30.88,30.879C352.073,133.433,352.073,137.744,354.737,140.408z"/>
	</g>
	<g opacity="0.5">
		<path fill="#FFE783" d="M443.647,230.148c0,3.769-3.049,6.818-6.816,6.818l-43.67,0c-3.765,0-6.816-3.048-6.816-6.817
			s3.052-6.816,6.816-6.816l43.67,0C440.599,223.333,443.647,226.381,443.647,230.148z"/>
	</g>
	<g opacity="0.5">
		<path fill="#FFE783" d="M255.996,44.5c3.769,0,6.817,3.049,6.817,6.816l0.001,43.67c0,3.765-3.049,6.816-6.818,6.816
			c-3.769,0-6.816-3.052-6.816-6.816v-43.67C249.18,47.548,252.228,44.5,255.996,44.5z"/>
	</g>
	<g opacity="0.5">
		<path fill="#FFE783" d="M117.571,360.408c2.665,2.665,6.977,2.665,9.641,0.001l30.88-30.879c2.662-2.662,2.664-6.976-0.001-9.641
			s-6.978-2.662-9.64,0l-30.88,30.879C114.907,353.433,114.907,357.744,117.571,360.408z"/>
	</g>
	<g opacity="0.5">
		<path fill="#FFE783" d="M158.091,140.408c-2.665,2.665-6.977,2.665-9.641,0.001l-30.88-30.879
			c-2.662-2.662-2.664-6.976,0.001-9.641s6.978-2.662,9.64,0l30.88,30.879C160.755,133.433,160.755,137.744,158.091,140.408z"/>
	</g>
	<g opacity="0.5">
		<path fill="#FFE783" d="M69.181,230.148c0,3.769,3.049,6.818,6.816,6.818l43.67,0c3.765,0,6.816-3.048,6.816-6.817
			s-3.052-6.816-6.816-6.816l-43.67,0C72.229,223.333,69.181,226.381,69.181,230.148z"/>
	</g>
	<circle opacity="0.2" fill="#FFFFFF" cx="220.065" cy="198.581" r="49.466"/>
</g>
</svg>
